# xmcd CD database file
#
# Track frame offsets:
#	150
#	2275
#	7536
#	8581
#	27637
#	44057
#	45965
#	74841
#	97249
#	132027
#	134181
#	159383
#	190338
#	219359
#	221082
#	232821
#	234143
#	260971
#	289470
#
# Disc length: 3910 seconds
#
# Revision: 0
# Processed by: cddbd v1.5PL3 Copyright (c) Steve Scherf et al.
# Submitted via: CDex 1.51
#
DISCID=0e0f4413
DTITLE=H.P. Lovecraft - Der Cthulhu Mythos Cd 3
DYEAR=2002
DGENRE=New Age
TTITLE0=01 Lovecraft über Dagon 
TTITLE1=02 Lovecraft über Dagon
TTITLE2=03 Die Glocke im Turm (H. P. Lovecraft and Lin Carter)
TTITLE3=04 Die Glocke im Turm (H. P. Lovecraft and Lin Carter)
TTITLE4=05 Die Glocke im Turm (H. P. Lovecraft and Lin Carter)
TTITLE5=06 Die Glocke im Turm (H. P. Lovecraft and Lin Carter)
TTITLE6=07 Die Glocke im Turm (H. P. Lovecraft and Lin Carter)
TTITLE7=08 Die Glocke im Turm (H. P. Lovecraft and Lin Carter)
TTITLE8=09 Die Glocke im Turm (H. P. Lovecraft and Lin Carter)
TTITLE9=10 Die Glocke im Turm (H. P. Lovecraft and Lin Carter)
TTITLE10=11 Die Glocke im Turm (H. P. Lovecraft and Lin Carter)
TTITLE11=12 Die Glocke im Turm (H. P. Lovecraft and Lin Carter)
TTITLE12=13 Die Glocke im Turm (H. P. Lovecraft and Lin Carter)
TTITLE13=14 Die Glocke im Turm (H. P. Lovecraft and Lin Carter)
TTITLE14=15 Lovecraft über warum Abdul Al Hazred dem Wahnsinn verfiel
TTITLE15=16 Warum Abdul Al  Hazred dem Wahnsinn verfiel (D.R. Smith)
TTITLE16=17 Warum Abdul Al  Hazred dem Wahnsinn verfiel (D.R. Smith)
TTITLE17=18 Warum Abdul Al  Hazred dem Wahnsinn verfiel (D.R. Smith)
TTITLE18=19  Warum Abdul Al  Hazred dem Wahnsinn verfiel (D.R. Smith)
EXTD=YEAR: 2002
EXTT0=
EXTT1=
EXTT2=
EXTT3=
EXTT4=
EXTT5=
EXTT6=
EXTT7=
EXTT8=
EXTT9=
EXTT10=
EXTT11=
EXTT12=
EXTT13=
EXTT14=
EXTT15=
EXTT16=
EXTT17=
EXTT18=
PLAYORDER=
